<?xml version="1.0" encoding="utf-8"?>
<!-- Generator: Adobe Illustrator 14.0.0, SVG Export Plug-In . SVG Version: 6.00 Build 43363)  -->
<!DOCTYPE svg PUBLIC "-//W3C//DTD SVG 1.1//EN" "http://www.w3.org/Graphics/SVG/1.1/DTD/svg11.dtd">
<svg version="1.1" id="Layer_1" xmlns="http://www.w3.org/2000/svg" xmlns:xlink="http://www.w3.org/1999/xlink" x="0px" y="0px"
	 width="44px" height="44px" viewBox="0 0 44 44" enable-background="new 0 0 44 44" xml:space="preserve">
<path fill="#FFFFFF" d="M27.513,28.792l-7.483-7.479c0.84-1.11,1.344-2.488,1.344-3.984c0-3.653-2.972-6.625-6.625-6.625
	s-6.625,2.972-6.625,6.625c0,3.654,2.972,6.626,6.625,6.626c1.493,0,2.867-0.502,3.976-1.339l7.479,7.487L27.513,28.792z
	 M9.125,17.328c0-3.102,2.523-5.625,5.625-5.625s5.625,2.523,5.625,5.625c0,3.102-2.523,5.626-5.625,5.626S9.125,20.43,9.125,17.328
	z"/>
</svg>
